<?xml version="1.0" encoding="UTF-8" standalone="no"?>
<!DOCTYPE svg PUBLIC "-//W3C//DTD SVG 1.1//EN" "http://www.w3.org/Graphics/SVG/1.1/DTD/svg11.dtd">
<svg width="100%" height="100%" viewBox="0 0 100 100" version="1.1" xmlns="http://www.w3.org/2000/svg" xmlns:xlink="http://www.w3.org/1999/xlink" xml:space="preserve" xmlns:serif="http://www.serif.com/" style="fill-rule:evenodd;clip-rule:evenodd;stroke-linejoin:round;stroke-miterlimit:1.41421;">
    <path id="runner" d="M59.475,23.835C59.465,24.028 59.47,24.218 59.49,24.407L58.717,24.774C57.262,25.139 55.985,25.719 54.824,26.441L52.476,27.535C52.281,28.45 52.281,29.387 52.414,30.337L52.373,32.914L52.041,33.941C51.557,34.606 51.402,35.15 51.871,35.462L53.219,35.614L53.521,35.107L53.59,34.563L53.375,34.18L53.264,33.598C53.675,32.028 54.189,30.495 54.089,28.737L54.312,28.486C55.261,28.554 56.18,28.577 56.781,27.886C57.068,28.875 57.403,29.882 58.039,30.73C57.982,31.601 57.846,32.13 57.47,32.442C56.686,33.12 56.284,33.978 56.344,35.055L56.356,36.351C55.42,37.78 54.933,39.212 54.895,40.646L54.309,41.56C53.266,42.437 52.561,43.498 52.185,44.737L49.664,47.449L48.501,47.394C48.266,47.509 48.119,47.642 48.059,47.791L48.072,50.596L48.317,51.191C48.495,51.58 48.702,51.821 48.919,52.016C49.359,52.361 49.591,52.263 49.534,51.547L49.372,51.151L50.322,48.163C52.315,47.085 54.324,45.545 56.346,43.692C56.702,43.389 57.029,43.058 57.316,42.689C58.287,41.304 59.06,39.807 59.491,38.115C61.197,38.531 62.911,38.71 64.639,38.496L64.764,38.68C64.021,39.297 63.272,39.931 62.931,40.66L61.177,42.545C60.669,42.621 60.268,42.813 59.91,43.184C59.727,43.305 59.711,43.508 59.771,43.691L61.011,46.377C61.226,46.784 61.516,47.091 61.871,47.313C62.012,47.42 62.149,47.429 62.285,47.377C62.295,47.2 62.301,47.027 62.303,46.855C62.204,46.775 62.115,46.643 62.041,46.436C62.066,45.707 62.127,44.889 62.218,43.994C62.273,43.664 62.334,43.448 62.648,43.164C64.482,41.862 66.267,40.439 68.06,39.032L68.771,38.431C69.029,38.08 69.012,37.719 68.693,37.347C66.798,35.673 64.393,34.749 61.456,34.605C61.375,34.474 61.341,34.19 61.343,33.786C61.789,32.742 62.189,31.665 62.359,30.422L63.409,31.501C63.749,31.713 63.993,31.635 64.144,31.28C64.954,30.555 65.744,29.817 66.361,28.965C66.798,28.596 67.225,28.217 67.59,27.773C67.665,27.64 67.68,27.416 67.632,27.092C67.266,26.767 66.848,26.529 66.397,26.344L65.681,27.079C65.644,27.542 65.636,27.947 65.658,28.289C65.035,28.738 64.439,29.226 63.896,29.787C63.695,29.465 63.413,28.884 63.037,28.001C62.849,27.137 62.486,26.309 61.603,25.566C61.639,25.198 61.667,24.952 61.902,24.831L62.648,24.773C62.752,24.723 62.779,24.621 62.736,24.469L62.628,24.268L62.884,24.13L62.822,23.793L62.934,23.446C63.097,23.421 63.213,23.344 63.296,23.229L62.807,22.546C62.872,22.141 62.831,21.777 62.701,21.448C62.423,20.975 62.09,20.55 61.377,20.469C60.622,20.285 59.997,20.422 59.367,21.024C58.9,21.471 58.727,21.923 58.906,22.706C58.977,23.094 59.225,23.465 59.475,23.835"/>
    <g id="PODCAST">
        <path id="T" d="M89.104,80.132L89.107,81.88L91.719,81.872L91.725,88.123L93.89,88.116L93.886,81.873L96.496,81.856L96.487,80.085L89.104,80.132"/>
        <path id="S" d="M82.671,80.126L77.903,80.132C77.107,80.101 76.544,80.391 76.364,81.01L76.366,83.846C76.503,84.506 76.845,84.851 77.379,84.896L80.552,84.918C80.832,85.009 80.963,85.159 80.96,85.362C80.997,85.57 80.996,85.771 80.969,85.967C80.87,86.272 80.707,86.418 80.497,86.443L76.586,86.483L76.597,88.157L81.488,88.139C82.241,88.056 82.805,87.777 83.017,87.129L83.021,84.198C82.956,83.718 82.671,83.437 82.212,83.314L78.57,83.32C78.358,83.283 78.26,83.145 78.267,82.916L78.238,81.994C78.252,81.865 78.335,81.774 78.519,81.739L82.686,81.71L82.671,80.126"/>
        <path id="A" d="M64.222,86.303L63.405,88.107L61.142,88.115L64.683,80.115L67.563,80.126L70.743,88.14L68.556,88.152L67.691,86.303L64.222,86.303ZM64.763,84.753L66.021,81.807L67.208,84.753L64.763,84.753Z"/>
        <path id="C" d="M55.505,80.119L51.055,80.097C50.075,80.106 49.399,80.478 49.272,81.382L49.297,86.832C49.555,87.59 50.049,88.008 50.731,88.154L55.524,88.164L55.5,86.358L51.677,86.359C51.387,86.345 51.221,86.161 51.192,85.792L51.149,82.362C51.141,82.03 51.301,81.886 51.628,81.928L55.514,81.868L55.505,80.119"/>
        <path id="D" d="M35.76,80.141L35.747,88.134L40.926,88.095C42.062,87.998 42.737,87.398 42.819,86.153L42.81,81.873C42.687,80.715 41.765,80.333 40.631,80.157L35.76,80.141ZM37.647,81.882L37.668,86.319L40.387,86.328C40.586,86.3 40.722,86.18 40.783,85.953L40.788,82.198C40.722,82.003 40.608,81.887 40.439,81.868L37.647,81.882Z"/>
        <path id="O" d="M21.924,81.355L21.925,86.798C22.084,87.717 22.599,88.097 23.369,88.089L27.728,88.15C28.678,88.005 29.234,87.572 29.312,86.79L29.307,81.466C29.172,80.725 28.675,80.296 27.817,80.179L23.748,80.142C22.713,80.18 22.116,80.594 21.924,81.355ZM23.909,82.595L23.911,85.815C23.987,86.176 24.207,86.409 24.616,86.471C25.288,86.501 25.961,86.504 26.635,86.466C27.037,86.441 27.296,86.198 27.414,85.837L27.401,82.493C27.289,82.201 27.031,82.024 26.673,81.925C25.989,81.84 25.303,81.835 24.613,81.95C24.208,82.035 23.952,82.233 23.909,82.595Z"/>
        <path id="P" d="M8.673,80.186L8.651,88.086L10.506,88.147L10.56,85.33L13.802,85.296C15.012,85.191 15.669,84.676 15.717,83.712L15.715,81.495C15.577,80.787 15.067,80.44 14.338,80.307C13.928,80.214 13.404,80.151 12.776,80.113L8.673,80.186ZM10.572,81.783L10.55,83.521L12.989,83.527C13.342,83.496 13.62,83.341 13.687,83.008L13.68,82.35C13.71,82.004 13.497,81.821 13.051,81.794L10.572,81.783Z"/>
    </g>
    <g id="LINE">
        <path id="E3" d="M83.824,70.819L93.523,76.356L96.946,76.404L96.889,70.765L83.824,70.819"/>
        <path id="E2" d="M77.301,68.291L77.332,75.402L88.928,75.325L77.301,68.291Z"/>
        <path id="E1" d="M77.317,51.767L77.294,67.179L83.241,70.456L83.27,66.457L96.257,66.439L96.299,61.62L83.246,61.54L83.237,57.103L96.943,57.054L96.93,51.75L77.317,51.767Z"/>
        <path id="N3" d="M64.714,51.794L64.718,59.973L70.75,63.378L70.703,51.705L64.714,51.794"/>
        <path id="N2" d="M48.768,52.65L46.07,54.337L46.09,57.071L49.277,53.72L46.095,57.622L46.107,75.352L49.725,75.384L49.778,72.412L50.769,72.413L50.91,75.257L52.06,75.355L52.116,59.011L61.313,75.366L69.464,75.27L67.058,72.575L68.465,72.59L70.657,74.878L70.656,64.273L64.743,60.687L64.729,68.385L57.865,56.589L50.38,51.996L57.502,55.87L55.19,51.744L50.064,51.722C50.002,52.442 49.61,52.797 48.768,52.65ZM66.605,71.986L67.866,71.925L65.61,69.447L64.509,69.516L66.605,71.986ZM49.797,71.815L49.842,69.407L50.67,69.386L50.746,71.802L49.797,71.815ZM63.978,68.907L65.064,68.898L51.1,53.659L63.978,68.907ZM49.876,68.765L50.637,68.753L50.2,53.639C50.018,55.608 49.956,62.563 49.876,68.765Z"/>
        <path id="N1" d="M46.087,51.744L46.072,54.002L48.646,52.563L48.016,51.705L46.087,51.744"/>
        <path id="I3" d="M33.096,72.851L33.112,75.44L39.563,75.413L39.527,65.341L36.645,68.698L35.492,68.691L34.946,69.251L36.06,69.254L34.078,71.729L33.117,71.721L33.096,72.281L33.654,72.275L33.096,72.851Z"/>
        <path id="I2" d="M33.142,62.222L33.119,71.232L39.544,64.35L39.53,58.276L33.142,62.222"/>
        <path id="I1" d="M33.187,51.69L33.222,61.362L39.571,57.734L39.533,51.729L33.187,51.69"/>
        <path id="L2" d="M19.377,70.683L28.185,70.691L28.192,75.322L11.606,75.338L19.377,70.683"/>
        <path id="L1" d="M9.055,51.692L9.026,75.155L16.892,70.653L15.58,70.671L15.582,51.758L9.055,51.692"/>
    </g>
    <g id="white">
        <g transform="matrix(1.83135,0,0,1.83135,37.6491,2.03903)">
            <path d="M23.87,16.387L23.853,23.272C24.075,24.215 24.64,24.577 25.408,24.597C27.305,24.815 29.952,24.723 32.465,24.687L32.446,22.32L27.277,22.241C26.785,22.319 26.61,21.883 26.636,21.121L32.665,21.118L32.673,16.226C32.522,15.579 32.03,15.214 31.197,15.133L25.245,15.178C24.471,15.237 23.928,15.548 23.87,16.387ZM26.759,17.396L26.735,19.186L29.421,19.202C29.617,19.166 29.723,19.039 29.732,18.813L29.742,17.725C29.738,17.555 29.636,17.484 29.392,17.395L26.759,17.396Z"/>
        </g>
        <path id="t" d="M67.923,25.255L67.943,26.787C68.136,27.285 68.12,27.715 67.962,28.1L67.966,30.026L66.204,30.061L63.887,32.602L63.911,33.931L67.885,33.943L67.877,35.974L68.264,36.208C68.673,36.56 69.041,36.883 69.366,37.176C69.517,37.798 69.525,38.319 69.325,38.695C69.012,39.119 68.459,39.489 67.846,39.794L67.837,42.761C68.293,45.723 70.028,47.221 72.961,47.346C74.856,47.468 76.752,47.437 78.65,47.203L78.605,43.246C76.926,43.427 75.583,43.432 74.536,43.284C73.857,43.244 73.442,42.813 73.338,41.922L73.252,33.979L78.655,33.999L78.652,30.065L73.314,30.016L73.233,25.269L67.923,25.255Z"/>
        <path id="h" d="M35.772,23.818L35.755,47.15L40.852,47.153L40.925,33.915L45.807,34.04C46.448,34.194 46.738,34.473 46.71,34.864L46.757,47.133L47.825,47.1L48.186,46.881L49.482,46.86C50.669,45.901 51.528,44.768 52.102,43.483L52.2,36.29C51.468,36.041 51.1,35.439 51.145,34.433C51.315,34.053 51.558,33.66 51.867,33.255C51.94,32.876 51.963,32.453 51.908,31.962C51.518,30.791 50.814,30.204 49.81,30.175C47.334,29.958 44.679,30.011 42.031,30.052C41.309,30.054 40.944,29.76 41.009,29.11L40.948,23.889L35.772,23.818"/>
        <path id="w" d="M2.46,30.066L8.033,47.011L14.673,47.073L18.163,36.452L21.747,47.002L28.078,47.09L33.717,30.031L28.071,30.001L25.022,40.683L21.574,30.103L15.036,30.04L11.496,40.477L8.387,29.982L2.46,30.066"/>
    </g>
    <g id="the">
        <path d="M23.87,16.387L23.853,23.272C24.075,24.215 24.64,24.577 25.408,24.597C27.305,24.815 29.952,24.723 32.465,24.687L32.446,22.32L27.277,22.241C26.785,22.319 26.61,21.883 26.636,21.121L32.665,21.118L32.673,16.226C32.522,15.579 32.03,15.214 31.197,15.133L25.245,15.178C24.471,15.237 23.928,15.548 23.87,16.387ZM26.759,17.396L26.735,19.186L29.421,19.202C29.617,19.166 29.723,19.039 29.732,18.813L29.742,17.725C29.738,17.555 29.636,17.484 29.392,17.395L26.759,17.396Z"/>
        <path d="M12.641,11.702L12.666,24.695L15.548,24.67L15.565,17.413L18.254,17.352C18.59,17.353 18.782,17.489 18.775,17.811L18.811,24.685L21.819,24.654L21.812,16.646C21.667,15.723 21.186,15.192 20.27,15.171L16.181,15.153C15.774,15.105 15.57,14.919 15.589,14.584L15.608,11.657L12.641,11.702"/>
        <path d="M5.048,12.486L4.999,15.109L2.764,15.103L2.772,17.386L4.94,17.379L4.942,22.039C5.076,23.451 5.732,24.342 6.955,24.667C8.297,25.009 9.625,24.991 10.977,24.702L11.001,22.573L8.603,22.548C8.252,22.56 8.031,22.297 7.967,21.702L7.919,17.366L10.949,17.384L10.939,15.127L7.971,15.098L7.94,12.512L5.048,12.486"/>
    </g>
</svg>
